<svg width="153" height="90" viewBox="0 0 153 90" fill="none" xmlns="http://www.w3.org/2000/svg">
<g clip-path="url(#clip0_945_17)">
<path d="M149.501 40.9182C145.236 40.2361 142.285 36.2895 142.838 32.0071L143.11 29.8978" stroke="black" stroke-width="0.9"/>
<path d="M42.9345 39.6938C47.5278 36.0203 48.5317 32.3884 50.2208 26.6343C51.7213 21.5225 52.3478 16.5306 56.0391 11.3265C61.5401 3.57099 66.9284 1.73462 75.439 1.73462C83.9496 1.73462 89.1169 2.96423 96.1074 6.96048C99.7549 9.04548 102.63 12.067 106.138 16.7974C108.873 20.4862 110.697 23.2529 116.472 26.6343C122.247 30.0157 143.292 30.3231 148.387 30.3231C153.482 30.3231 151.891 35.368 150.556 38.3415C148.083 43.8489 142.961 47.5884 138.964 51.2265C132.885 56.7598 121.329 54.6583 119.208 55.2228C116.107 56.048 106.566 59.0816 96.767 59.0816C87.9385 59.0816 76.351 75.2039 76.351 75.2039L51.1229 65.0596" stroke="black"/>
<path d="M65.2566 17.9552C66.7877 32.9552 65.2566 42.1389 60.0508 52.547C56.2622 60.1215 53.0278 64.5949 45.6582 68.7716C37.6541 73.3083 31.423 74.171 22.3851 72.4451C12.6735 70.59 2.91839 68.662 0.949365 58.9756C-0.608095 51.3148 3.03476 45.7661 8.91121 40.6083C17.9877 32.6418 28.2273 43.9283 39.8399 40.6083C43.9182 39.4424 46.5769 39.2054 49.9453 36.6287C53.2697 34.0859 56.3761 28.0572 56.3761 28.0572" stroke="black"/>
<path d="M120.716 55.306C120.716 55.306 113.979 51.8774 96.83 51.0203C94.074 50.8825 93.1553 47.3468 93.1553 47.3468" stroke="black" stroke-width="0.9"/>
<path d="M101.73 11.2244L99.0132 18.5046L103.728 20.698L100.505 26.5305" stroke="black"/>
<path d="M97.6475 32.4466C96.0772 31.7161 95.403 29.793 96.1727 28.1395C96.9424 26.4859 98.8484 25.7632 100.419 26.4936C101.989 27.2241 102.663 29.1472 101.893 30.8007C101.124 32.4543 99.2177 33.177 97.6475 32.4466Z" stroke="black"/>
<path d="M98.2862 28.7527C97.8109 29.7738 98.2238 30.9728 99.2084 31.4308C100.193 31.8888 101.377 31.4325 101.852 30.4115C102.327 29.3904 101.914 28.1914 100.93 27.7334C99.945 27.2754 98.7615 27.7317 98.2862 28.7527Z" fill="black"/>
<path d="M99.2598 28.5153C99.0699 28.9234 99.2468 29.4081 99.655 29.598C100.063 29.7879 100.548 29.6111 100.738 29.203C100.928 28.7949 100.751 28.3102 100.343 28.1203C99.9347 27.9304 99.4498 28.1072 99.2598 28.5153Z" fill="white"/>
<path d="M90.7056 4.18359L87.7125 15.6203" stroke="black"/>
<path d="M86.587 19.9007C85.5422 19.6262 84.9083 18.5172 85.2004 17.4066C85.4925 16.2961 86.5894 15.6418 87.6349 15.9164C88.6797 16.1909 89.3136 17.2999 89.0215 18.4105C88.7293 19.5211 87.6324 20.1753 86.587 19.9007Z" stroke="black"/>
<path d="M83.9688 2.34692L80.7705 14.2653" stroke="black"/>
<path d="M79.6449 18.5457C78.6 18.2712 77.9661 17.1622 78.2583 16.0516C78.5504 14.9411 79.6473 14.2868 80.6928 14.5614C81.7376 14.8359 82.3715 15.9449 82.0793 17.0555C81.7872 18.166 80.6903 18.8203 79.6449 18.5457Z" stroke="black"/>
<path d="M78.7629 1.73462L77.2202 7.67344L72.8069 6.51397L71.416 11.8051" stroke="black"/>
<path d="M70.4055 15.6495C69.36 15.375 68.7268 14.266 69.0183 13.1554C69.3104 12.0449 70.4079 11.3906 71.4528 11.6651C72.4976 11.9397 73.1315 13.0487 72.8394 14.1592C72.5472 15.2698 71.4503 15.924 70.4055 15.6495Z" stroke="black"/>
<path d="M69.4519 72.0875L67.4914 80.1575L71.5605 81.1451L70.3914 85.9567" stroke="black"/>
<path d="M68.3249 86.8907C68.0919 87.8496 68.6807 88.8159 69.64 89.0488C70.5993 89.2817 71.5659 88.6931 71.7989 87.7341C72.0318 86.7751 71.443 85.8089 70.4837 85.576C69.5244 85.3431 68.5579 85.9317 68.3249 86.8907Z" stroke="black"/>
<path d="M64.7769 70.1877L61.6736 82.9733" stroke="black"/>
<path d="M59.4426 84.5856C59.2096 85.5446 59.7984 86.5108 60.7577 86.7437C61.717 86.9766 62.6835 86.388 62.9165 85.429C63.1495 84.47 62.5607 83.5038 61.6014 83.2709C60.6421 83.038 59.6756 83.6266 59.4426 84.5856Z" stroke="black"/>
<path d="M59.0579 68.6173L55.6361 81.6563" stroke="black"/>
<path d="M53.405 83.2686C53.172 84.2276 53.7608 85.1938 54.7201 85.4267C55.6794 85.6596 56.6459 85.071 56.8789 84.112C57.1119 83.153 56.5231 82.1868 55.5638 81.9539C54.6045 81.721 53.638 82.3096 53.405 83.2686Z" stroke="black"/>
<path d="M54.1711 66.2615L51.8273 76.2056L47.7582 75.218L46.589 80.029" stroke="black"/>
<path d="M44.5226 80.9635C44.2897 81.9225 44.8785 82.8887 45.8378 83.1216C46.7971 83.3545 47.7636 82.7659 47.9966 81.807C48.2296 80.848 47.6408 79.8818 46.6815 79.6488C45.7222 79.4159 44.7556 80.0045 44.5226 80.9635Z" stroke="black"/>
</g>
<defs>
<clipPath id="clip0_945_17">
<rect width="152.5" height="90" fill="white" transform="matrix(-1 0 0 1 152.5 0)"/>
</clipPath>
</defs>
</svg>
