<svg xmlns="http://www.w3.org/2000/svg" version="1.1" xmlns:xlink="http://www.w3.org/1999/xlink" xmlns:svgjs="http://svgjs.com/svgjs" width="512" height="512" x="0" y="0" viewBox="0 0 32 32" style="enable-background:new 0 0 512 512" xml:space="preserve" class=""><g><g xmlns="http://www.w3.org/2000/svg"><path d="m1.94531 7.90579h28.10983c1.07262 0 1.94486-.87224 1.94486-1.94485s-.87224-1.94531-1.94485-1.94531h-28.10984c-1.07261 0-1.94531.8727-1.94531 1.94531s.8727 1.94485 1.94531 1.94485z" fill="#ffffff" data-original="#000000" class=""></path><path d="m30.05515 14.05469h-28.10984c-1.07261 0-1.94531.8727-1.94531 1.94531s.8727 1.94485 1.94531 1.94485h28.10983c1.07262 0 1.94486-.87224 1.94486-1.94485s-.87224-1.94531-1.94485-1.94531z" fill="#ffffff" data-original="#000000" class=""></path><path d="m30.05515 24.09375h-28.10984c-1.07261 0-1.94531.87316-1.94531 1.94577s.8727 1.94485 1.94531 1.94485h28.10983c1.07261 0 1.94485-.87224 1.94485-1.94485s-.87223-1.94577-1.94484-1.94577z" fill="#ffffff" data-original="#000000" class=""></path></g></g></svg>