<svg xmlns="http://www.w3.org/2000/svg" version="1.1" xmlns:xlink="http://www.w3.org/1999/xlink" width="512" height="512" x="0" y="0" viewBox="0 0 24 24" style="enable-background:new 0 0 512 512" xml:space="preserve" class=""><g><path fill="#ffffff" d="M23.56 10.93 13.06.43a1.54 1.54 0 0 0-2.12 0l-2 2a.5.5 0 0 0 0 .71L10.74 5a.5.5 0 0 0 .54.11A2 2 0 0 1 14 7a2 2 0 0 1-.15.74.5.5 0 0 0 .11.54L15.72 10a.5.5 0 0 0 .54.11A2 2 0 1 1 15 12a2 2 0 0 1 .14-.71.5.5 0 0 0-.11-.53l-1.68-1.69a.5.5 0 0 0-.85.35v5.28a.5.5 0 0 0 .3.46 2 2 0 1 1-1.6 0 .5.5 0 0 0 .3-.46V9.28a.5.5 0 0 0-.3-.46 2 2 0 0 1-1.06-2.56.5.5 0 0 0-.14-.53L8.19 3.88a.5.5 0 0 0-.71 0l-7 7a1.5 1.5 0 0 0 0 2.12l10.5 10.51a1.5 1.5 0 0 0 2.12 0L23.6 13a1.5 1.5 0 0 0 0-2.12z" opacity="1" data-original="#303c42" class=""></path></g></svg>