<svg width="301" height="147" viewBox="0 0 301 147" fill="none" xmlns="http://www.w3.org/2000/svg">
<path d="M56.8971 66.8332V66.8332C63.8611 65.719 68.6794 59.2729 67.7766 52.2784L67.3319 48.8332" stroke="black" stroke-width="0.9"/>
<path d="M230.897 64.8332C223.397 58.8332 221.758 52.9011 219 43.5027C216.55 35.1534 215.527 27 209.5 18.5C200.518 5.83263 191.72 2.83322 177.824 2.83322C163.928 2.83322 155.491 4.84159 144.077 11.3688C138.121 14.7743 133.427 19.7094 127.699 27.4357C123.233 33.4608 120.255 37.9797 110.826 43.5027C101.396 49.0257 67.0343 49.5278 58.7157 49.5278C50.3971 49.5278 52.9944 57.7677 55.1743 62.6244C59.212 71.6198 67.5743 77.7277 74.1006 83.67C84.0263 92.7077 102.896 89.2753 106.359 90.1972C111.422 91.5451 127 96.5 143 96.5C157.415 96.5 176.335 122.833 176.335 122.833L217.527 106.264" stroke="black"/>
<path d="M194.45 29.3269C191.95 53.8269 194.45 68.8269 202.95 85.8269C209.136 98.1986 214.417 105.505 226.45 112.327C239.519 119.737 249.693 121.146 264.45 118.327C280.307 115.297 296.235 112.148 299.45 96.3269C301.993 83.8142 296.045 74.7513 286.45 66.3269C271.63 53.315 254.911 71.7497 235.95 66.3269C229.291 64.4225 224.95 64.0356 219.45 59.8269C214.022 55.6737 208.95 45.8269 208.95 45.8269" stroke="black"/>
<path d="M103.897 90.3332C103.897 90.3332 114.897 84.7332 142.897 83.3332C147.397 83.1082 148.897 77.3332 148.897 77.3332" stroke="black" stroke-width="0.9"/>
<path d="M134.897 18.3332L139.332 30.2243L131.634 33.8068L136.897 43.3332" stroke="black"/>
<path d="M141.563 52.996C144.126 51.8029 145.227 48.6618 143.97 45.9611C142.714 43.2603 139.602 42.0798 137.038 43.2729C134.474 44.466 133.373 47.607 134.63 50.3078C135.887 53.0086 138.999 54.1891 141.563 52.996Z" stroke="black"/>
<ellipse cx="3.3305" cy="3.21066" rx="3.3305" ry="3.21066" transform="matrix(0.42191 0.906638 0.906638 -0.42191 133.292 46.6525)" fill="black"/>
<circle cx="1.33111" cy="1.33111" r="1.33111" transform="matrix(0.42191 0.906638 0.906638 -0.42191 135.955 46.4914)" fill="white"/>
<path d="M152.897 6.83322L157.784 25.5132" stroke="black"/>
<path d="M159.622 32.5046C161.328 32.0562 162.363 30.2449 161.886 28.4309C161.409 26.617 159.618 25.5484 157.911 25.9968C156.205 26.4452 155.17 28.2566 155.647 30.0705C156.124 31.8844 157.915 32.953 159.622 32.5046Z" stroke="black"/>
<path d="M163.897 3.83322L169.119 23.2999" stroke="black"/>
<path d="M170.957 30.2913C172.663 29.8429 173.698 28.0315 173.221 26.2176C172.744 24.4037 170.953 23.3351 169.246 23.7835C167.54 24.2319 166.505 26.0432 166.982 27.8572C167.459 29.6711 169.25 30.7397 170.957 30.2913Z" stroke="black"/>
<path d="M172.397 2.83322L174.916 12.5333L182.122 10.6395L184.393 19.2816" stroke="black"/>
<path d="M186.043 25.5608C187.75 25.1124 188.784 23.301 188.308 21.4871C187.831 19.6732 186.039 18.6046 184.333 19.053C182.627 19.5014 181.592 21.3128 182.069 23.1267C182.546 24.9406 184.337 26.0092 186.043 25.5608Z" stroke="black"/>
<path d="M187.6 117.743L190.801 130.924L184.157 132.537L186.066 140.396" stroke="black"/>
<circle cx="3.41856" cy="3.41856" r="2.91856" transform="matrix(0.236005 0.971752 0.971752 -0.236005 182.475 140.095)" stroke="black"/>
<path d="M195.233 114.64L200.3 135.523" stroke="black"/>
<circle cx="3.41856" cy="3.41856" r="2.91856" transform="matrix(0.236005 0.971752 0.971752 -0.236005 196.978 136.33)" stroke="black"/>
<path d="M204.571 112.075L210.158 133.372" stroke="black"/>
<circle cx="3.41856" cy="3.41856" r="2.91856" transform="matrix(0.236005 0.971752 0.971752 -0.236005 206.836 134.179)" stroke="black"/>
<path d="M212.55 108.227L216.377 124.469L223.021 122.856L224.93 130.714" stroke="black"/>
<circle cx="3.41856" cy="3.41856" r="2.91856" transform="matrix(0.236005 0.971752 0.971752 -0.236005 221.339 130.414)" stroke="black"/>
<path d="M11.052 129.758C10.224 130.73 8.964 131.216 7.272 131.216C5.58 131.216 4.314 130.724 3.474 129.74C2.646 128.756 2.232 127.412 2.232 125.708V118.13H3.096V125.708C3.096 128.876 4.482 130.46 7.254 130.46C10.038 130.46 11.43 128.876 11.43 125.708V118.13H12.294V125.708C12.294 127.424 11.88 128.774 11.052 129.758ZM16.6795 131V119.246H17.0755L24.7435 128.066C25.0195 128.378 25.2715 128.69 25.4995 129.002C25.7395 129.302 25.8655 129.458 25.8775 129.47C25.8535 129.182 25.8415 128.618 25.8415 127.778V119.318H26.6695V131.072H26.2735L18.4615 122.108L17.4715 120.902C17.4955 121.142 17.5075 121.706 17.5075 122.594V131H16.6795ZM34.7321 130.388C36.2681 130.388 37.4981 129.974 38.4221 129.146C39.3581 128.318 39.8261 127.07 39.8261 125.402C39.8261 123.734 39.2981 122.408 38.2421 121.424C37.1981 120.44 35.9081 119.948 34.3721 119.948C33.2801 119.948 32.4401 119.972 31.8521 120.02V130.262C32.5721 130.346 33.5321 130.388 34.7321 130.388ZM34.3721 119.21C36.1721 119.21 37.6721 119.768 38.8721 120.884C40.0841 121.988 40.6901 123.494 40.6901 125.402C40.6901 127.31 40.1321 128.744 39.0161 129.704C37.9121 130.664 36.4841 131.144 34.7321 131.144C33.5201 131.144 32.2721 131.084 30.9881 130.964V119.318C31.9481 119.246 33.0761 119.21 34.3721 119.21ZM44.2948 131V119.318H49.7488V120.038H45.1228V124.286H49.2988V124.988H45.1228V130.244H49.9288V131H44.2948ZM53.242 131V119.372C54.274 119.288 55.15 119.246 55.87 119.246C56.974 119.246 57.886 119.534 58.606 120.11C59.326 120.674 59.686 121.484 59.686 122.54C59.686 123.248 59.482 123.902 59.074 124.502C58.666 125.102 58.204 125.588 57.688 125.96C59.116 127.856 59.998 128.99 60.334 129.362C61.018 130.07 61.762 130.472 62.566 130.568L62.548 131.126C61.876 131.114 61.33 131.018 60.91 130.838C60.49 130.646 60.07 130.328 59.65 129.884C59.242 129.44 58.336 128.246 56.932 126.302C55.96 126.302 55.006 126.272 54.07 126.212V131H53.242ZM56.482 125.618C56.95 125.618 57.454 125.306 57.994 124.682C58.534 124.058 58.804 123.332 58.804 122.504C58.804 121.676 58.522 121.046 57.958 120.614C57.394 120.182 56.662 119.966 55.762 119.966C55.282 119.966 54.718 119.99 54.07 120.038V125.528C54.934 125.588 55.738 125.618 56.482 125.618ZM67.9372 130.388C69.4732 130.388 70.7032 129.974 71.6272 129.146C72.5632 128.318 73.0312 127.07 73.0312 125.402C73.0312 123.734 72.5032 122.408 71.4472 121.424C70.4032 120.44 69.1132 119.948 67.5772 119.948C66.4852 119.948 65.6452 119.972 65.0572 120.02V130.262C65.7772 130.346 66.7372 130.388 67.9372 130.388ZM67.5772 119.21C69.3772 119.21 70.8772 119.768 72.0772 120.884C73.2892 121.988 73.8952 123.494 73.8952 125.402C73.8952 127.31 73.3372 128.744 72.2212 129.704C71.1172 130.664 69.6892 131.144 67.9372 131.144C66.7252 131.144 65.4772 131.084 64.1932 130.964V119.318C65.1532 119.246 66.2812 119.21 67.5772 119.21ZM82.6658 131.18C80.9978 131.18 79.5998 130.598 78.4718 129.434C77.3438 128.27 76.7798 126.848 76.7798 125.168C76.7798 123.476 77.3438 122.048 78.4718 120.884C79.5998 119.72 80.9978 119.138 82.6658 119.138C84.3338 119.138 85.7318 119.72 86.8598 120.884C87.9878 122.048 88.5518 123.476 88.5518 125.168C88.5518 126.848 87.9878 128.27 86.8598 129.434C85.7318 130.598 84.3338 131.18 82.6658 131.18ZM82.6658 119.876C81.2258 119.876 80.0258 120.386 79.0658 121.406C78.1178 122.426 77.6438 123.68 77.6438 125.168C77.6438 126.644 78.1178 127.892 79.0658 128.912C80.0258 129.92 81.2258 130.424 82.6658 130.424C84.1178 130.424 85.3178 129.92 86.2658 128.912C87.2138 127.892 87.6878 126.644 87.6878 125.168C87.6878 123.68 87.2138 122.426 86.2658 121.406C85.3178 120.386 84.1178 119.876 82.6658 119.876ZM97.038 119.876C95.706 119.876 94.584 120.386 93.672 121.406C92.772 122.414 92.322 123.656 92.322 125.132C92.322 126.608 92.832 127.862 93.852 128.894C94.872 129.914 96.072 130.424 97.452 130.424C98.844 130.424 99.924 130.262 100.692 129.938V125.132H101.52V130.316C100.584 130.892 99.258 131.18 97.542 131.18C95.826 131.18 94.38 130.598 93.204 129.434C92.028 128.27 91.44 126.842 91.44 125.15C91.44 123.446 91.968 122.018 93.024 120.866C94.092 119.714 95.466 119.138 97.146 119.138C98.502 119.138 99.828 119.348 101.124 119.768L100.908 120.452C99.66 120.068 98.37 119.876 97.038 119.876ZM112.151 118.166C113.087 118.094 114.041 118.058 115.013 118.058C115.997 118.058 116.843 118.298 117.551 118.778C118.271 119.258 118.631 119.954 118.631 120.866C118.631 121.55 118.439 122.186 118.055 122.774C117.683 123.362 117.233 123.806 116.705 124.106C117.557 124.37 118.271 124.826 118.847 125.474C119.423 126.122 119.711 126.848 119.711 127.652C119.711 128.78 119.351 129.638 118.631 130.226C117.923 130.814 116.945 131.108 115.697 131.108C114.461 131.108 113.279 131.06 112.151 130.964V118.166ZM115.805 130.334C116.681 130.334 117.401 130.094 117.965 129.614C118.529 129.122 118.811 128.498 118.811 127.742C118.811 126.986 118.535 126.332 117.983 125.78C117.443 125.228 116.699 124.85 115.751 124.646C115.307 124.55 114.791 124.502 114.203 124.502C113.627 124.502 113.231 124.502 113.015 124.502V130.244C113.543 130.304 114.473 130.334 115.805 130.334ZM117.767 120.848C117.767 120.188 117.491 119.678 116.939 119.318C116.399 118.958 115.787 118.778 115.103 118.778C114.431 118.778 113.735 118.802 113.015 118.85V123.764C113.171 123.764 113.465 123.764 113.897 123.764C114.329 123.764 114.965 123.8 115.805 123.872C116.345 123.584 116.807 123.17 117.191 122.63C117.575 122.09 117.767 121.496 117.767 120.848ZM126.18 131H125.37V126.824L120.96 119.318H121.95L125.352 125.114C125.616 125.642 125.766 125.924 125.802 125.96C125.874 125.804 126.024 125.528 126.252 125.132L129.654 119.318H130.59L126.18 126.86V131ZM135.047 120.056H131.087V119.318H139.817V120.056H135.857V131H135.047V120.056ZM142.258 131V119.318H147.712V120.038H143.086V124.286H147.262V124.988H143.086V130.244H147.892V131H142.258ZM153.563 119.822C152.915 119.822 152.387 119.978 151.979 120.29C151.571 120.602 151.367 121.04 151.367 121.604C151.367 122.252 151.637 122.834 152.177 123.35C152.561 123.722 153.053 124.118 153.653 124.538C154.265 124.946 154.685 125.24 154.913 125.42C155.141 125.6 155.417 125.846 155.741 126.158C156.329 126.746 156.623 127.424 156.623 128.192C156.623 129.188 156.287 129.944 155.615 130.46C154.955 130.964 154.025 131.216 152.825 131.216C151.637 131.216 150.641 130.904 149.837 130.28L150.269 129.65C151.085 130.202 151.949 130.478 152.861 130.478C153.773 130.478 154.481 130.286 154.985 129.902C155.501 129.518 155.759 128.978 155.759 128.282C155.759 127.682 155.501 127.13 154.985 126.626C154.625 126.266 154.139 125.876 153.527 125.456C152.927 125.036 152.507 124.736 152.267 124.556C152.027 124.364 151.745 124.112 151.421 123.8C150.809 123.188 150.503 122.48 150.503 121.676C150.503 120.872 150.785 120.242 151.349 119.786C151.925 119.33 152.717 119.102 153.725 119.102C154.733 119.102 155.639 119.3 156.443 119.696L156.137 120.362C155.393 120.002 154.535 119.822 153.563 119.822Z" fill="black"/>
</svg>
