<svg width="249" height="147" viewBox="0 0 249 147" fill="none" xmlns="http://www.w3.org/2000/svg">
<path d="M4.89713 66.8332V66.8332C11.8611 65.719 16.6794 59.2729 15.7766 52.2784L15.3319 48.8332" stroke="black" stroke-width="0.9"/>
<path d="M178.897 64.8332C171.397 58.8332 169.758 52.9011 167 43.5027C164.55 35.1534 163.527 27 157.5 18.5C148.518 5.83263 139.72 2.83322 125.824 2.83322C111.928 2.83322 103.491 4.84159 92.0769 11.3688C86.1214 14.7743 81.4272 19.7094 75.6994 27.4357C71.2329 33.4608 68.2551 37.9797 58.8257 43.5027C49.3963 49.0257 15.0343 49.5278 6.71572 49.5278C-1.60287 49.5278 0.994433 57.7677 3.17435 62.6244C7.212 71.6198 15.5743 77.7277 22.1006 83.67C32.0263 92.7077 50.8961 89.2753 54.3591 90.1972C59.4219 91.5451 75 96.5 91 96.5C105.415 96.5 124.335 122.833 124.335 122.833L165.527 106.264" stroke="black"/>
<path d="M142.45 29.3269C139.95 53.8269 142.45 68.8269 150.95 85.8269C157.136 98.1986 162.417 105.505 174.45 112.327C187.519 119.737 197.693 121.146 212.45 118.327C228.307 115.297 244.235 112.148 247.45 96.3269C249.993 83.8142 244.045 74.7513 234.45 66.3269C219.63 53.315 202.911 71.7497 183.95 66.3269C177.291 64.4226 172.95 64.0356 167.45 59.8269C162.022 55.6737 156.95 45.8269 156.95 45.8269" stroke="black"/>
<path d="M51.8971 90.3332C51.8971 90.3332 62.8971 84.7332 90.8971 83.3332C95.3971 83.1082 96.8971 77.3332 96.8971 77.3332" stroke="black" stroke-width="0.9"/>
<path d="M82.8971 18.3332L87.3325 30.2243L79.6342 33.8068L84.8971 43.3332" stroke="black"/>
<path d="M89.5625 52.996C92.1264 51.8029 93.2273 48.6618 91.9705 45.9611C90.7137 43.2603 87.6016 42.0798 85.0378 43.2729C82.4739 44.466 81.373 47.607 82.6298 50.3078C83.8866 53.0086 86.9987 54.1891 89.5625 52.996Z" stroke="black"/>
<ellipse cx="3.3305" cy="3.21066" rx="3.3305" ry="3.21066" transform="matrix(0.42191 0.906638 0.906638 -0.42191 81.2925 46.6525)" fill="black"/>
<circle cx="1.33111" cy="1.33111" r="1.33111" transform="matrix(0.42191 0.906638 0.906638 -0.42191 83.9547 46.4914)" fill="white"/>
<path d="M100.897 6.83322L105.784 25.5132" stroke="black"/>
<path d="M107.622 32.5046C109.328 32.0562 110.363 30.2449 109.886 28.4309C109.409 26.617 107.618 25.5484 105.911 25.9968C104.205 26.4452 103.17 28.2566 103.647 30.0705C104.124 31.8845 105.915 32.953 107.622 32.5046Z" stroke="black"/>
<path d="M111.897 3.83322L117.119 23.2999" stroke="black"/>
<path d="M118.957 30.2913C120.663 29.8429 121.698 28.0315 121.221 26.2176C120.744 24.4037 118.953 23.3351 117.246 23.7835C115.54 24.2319 114.505 26.0433 114.982 27.8572C115.459 29.6711 117.25 30.7397 118.957 30.2913Z" stroke="black"/>
<path d="M120.397 2.83322L122.916 12.5333L130.122 10.6395L132.393 19.2816" stroke="black"/>
<path d="M134.043 25.5608C135.75 25.1124 136.784 23.301 136.308 21.4871C135.831 19.6732 134.039 18.6046 132.333 19.053C130.627 19.5014 129.592 21.3128 130.069 23.1267C130.546 24.9406 132.337 26.0092 134.043 25.5608Z" stroke="black"/>
<path d="M135.6 117.743L138.801 130.924L132.157 132.537L134.066 140.396" stroke="black"/>
<circle cx="3.41856" cy="3.41856" r="2.91856" transform="matrix(0.236005 0.971752 0.971752 -0.236005 130.475 140.095)" stroke="black"/>
<path d="M143.233 114.64L148.3 135.523" stroke="black"/>
<circle cx="3.41856" cy="3.41856" r="2.91856" transform="matrix(0.236005 0.971752 0.971752 -0.236005 144.978 136.33)" stroke="black"/>
<path d="M152.571 112.075L158.158 133.372" stroke="black"/>
<circle cx="3.41856" cy="3.41856" r="2.91856" transform="matrix(0.236005 0.971752 0.971752 -0.236005 154.836 134.179)" stroke="black"/>
<path d="M160.55 108.227L164.377 124.469L171.021 122.856L172.93 130.714" stroke="black"/>
<circle cx="3.41856" cy="3.41856" r="2.91856" transform="matrix(0.236005 0.971752 0.971752 -0.236005 169.339 130.414)" stroke="black"/>
</svg>
